<svg width="50" height="50" viewBox="0 0 50 50" fill="none" xmlns="http://www.w3.org/2000/svg">
<circle cx="25" cy="25" r="25" fill="#72FEBA"/>
<mask id="mask0_50_7" style="mask-type:alpha" maskUnits="userSpaceOnUse" x="0" y="0" width="50" height="50">
<circle cx="25" cy="25" r="25" fill="#72FEBA"/>
</mask>
<g mask="url(#mask0_50_7)">
<path d="M39.735 18.3746L34.8788 13.5184C34.3657 13.005 33.7072 12.662 32.9924 12.5359C32.2777 12.4098 31.5415 12.5066 30.8838 12.8134L13.2563 21.0409C12.6338 21.3309 12.2363 21.9559 12.235 22.6421L12.235 23.3746L28.29 23.3746C28.3213 23.3409 28.345 23.2996 28.3775 23.2671C28.7484 22.8963 29.2208 22.6437 29.7352 22.5414C30.2496 22.4391 30.7827 22.4916 31.2673 22.6923C31.7518 22.893 32.1659 23.2329 32.4573 23.6689C32.7487 24.105 32.9042 24.6177 32.9042 25.1421C32.9042 25.6666 32.7487 26.1792 32.4573 26.6153C32.1659 27.0514 31.7518 27.3912 31.2673 27.5919C30.7827 27.7926 30.2496 27.8451 29.7352 27.7428C29.2208 27.6405 28.7484 27.388 28.3775 27.0171C28.345 26.9846 28.3213 26.9434 28.29 26.9096L12.235 26.9096L12.235 27.6421C12.2346 27.9787 12.3305 28.3083 12.5115 28.5921C12.6925 28.8758 12.9509 29.1018 13.2563 29.2434L30.885 37.4696C31.5428 37.7764 32.279 37.8732 32.9937 37.7471C33.7084 37.621 34.367 37.278 34.88 36.7646L39.7363 31.9084L44.7325 31.9096L44.7325 18.3746L39.735 18.3746ZM47.5988 31.3934L47.5988 18.8934L52.9 18.8921L52.9 31.3921L47.5988 31.3934Z" fill="#0F172A"/>
</g>
</svg>
