<svg width="50" height="50" viewBox="0 0 50 50" fill="none" xmlns="http://www.w3.org/2000/svg">
<path fill-rule="evenodd" clip-rule="evenodd" d="M49.2487 18.893L47.5987 18.8934L47.5988 31.3934L49.1751 31.393C46.3504 42.103 36.5974 50 25 50C11.1929 50 0 38.8071 0 25C0 11.1929 11.1929 0 25 0C36.7004 0 46.5235 8.03784 49.2487 18.893ZM34.8787 13.5184L39.735 18.3746H44.7325L44.7325 31.9096L39.7362 31.9084L34.88 36.7646C34.367 37.278 33.7084 37.621 32.9937 37.7471C32.279 37.8732 31.5428 37.7764 30.885 37.4696L13.2563 29.2434C12.9509 29.1018 12.6925 28.8758 12.5115 28.5921C12.3305 28.3083 12.2346 27.9787 12.235 27.6421L12.235 26.9096H28.29C28.3044 26.9252 28.3172 26.9424 28.3301 26.9596C28.345 26.9796 28.36 26.9996 28.3775 27.0171C28.7483 27.388 29.2208 27.6405 29.7352 27.7428C30.2496 27.8451 30.7827 27.7926 31.2672 27.5919C31.7518 27.3912 32.1659 27.0514 32.4573 26.6153C32.7486 26.1792 32.9041 25.6666 32.9041 25.1421C32.9041 24.6177 32.7486 24.105 32.4573 23.669C32.1659 23.2329 31.7518 22.893 31.2672 22.6923C30.7827 22.4916 30.2496 22.4391 29.7352 22.5414C29.2208 22.6437 28.7483 22.8963 28.3775 23.2671C28.36 23.2846 28.345 23.3047 28.3301 23.3247C28.3172 23.3419 28.3044 23.3591 28.29 23.3746H12.235L12.235 22.6421C12.2363 21.9559 12.6338 21.3309 13.2563 21.0409L30.8838 12.8134C31.5415 12.5066 32.2777 12.4098 32.9924 12.5359C33.7071 12.662 34.3657 13.005 34.8787 13.5184Z" fill="white"/>
</svg>
