<svg width="50" height="50" viewBox="0 0 50 50" fill="none" xmlns="http://www.w3.org/2000/svg">
<path fill-rule="evenodd" clip-rule="evenodd" d="M49.2313 18.8238L47.5988 18.8242V31.3242L49.1933 31.3238C46.3924 42.069 36.6224 50 25 50C11.1929 50 0 38.8071 0 25C0 11.1929 11.1929 0 25 0C36.6756 0 46.4818 8.00371 49.2313 18.8238ZM34.8788 13.4492L39.735 18.3054H44.7325V31.8405L39.7363 31.8392L34.88 36.6955C34.367 37.2088 33.7084 37.5518 32.9937 37.6779C32.279 37.8041 31.5428 37.7072 30.885 37.4005L13.2563 29.1742C12.9509 29.0327 12.6925 28.8067 12.5115 28.5229C12.3305 28.2391 12.2346 27.9095 12.235 27.573L12.235 26.8405L28.29 26.8405C28.3044 26.856 28.3173 26.8732 28.3301 26.8904C28.3451 26.9104 28.36 26.9305 28.3775 26.948C28.7484 27.3188 29.2208 27.5713 29.7352 27.6737C30.2496 27.776 30.7827 27.7235 31.2673 27.5228C31.7518 27.3221 32.1659 26.9822 32.4573 26.5461C32.7487 26.1101 32.9042 25.5974 32.9042 25.073C32.9042 24.5485 32.7487 24.0358 32.4573 23.5998C32.1659 23.1637 31.7518 22.8238 31.2673 22.6231C30.7827 22.4224 30.2496 22.3699 29.7352 22.4722C29.2208 22.5746 28.7484 22.8271 28.3775 23.198C28.36 23.2155 28.3451 23.2355 28.3301 23.2555C28.3173 23.2727 28.3044 23.2899 28.29 23.3054L12.235 23.3055L12.235 22.5729C12.2363 21.8867 12.6338 21.2617 13.2563 20.9717L30.8838 12.7442C31.5415 12.4375 32.2777 12.3406 32.9924 12.4667C33.7072 12.5928 34.3657 12.9359 34.8788 13.4492Z" fill="#E2E8F0"/>
</svg>
